<svg xmlns="http://www.w3.org/2000/svg" width="103.586" height="184.406" viewBox="0 0 103.586 184.406">
  <g id="Group_450" data-name="Group 450" transform="translate(-329.088 -51.535)">
    <g id="Group_372" data-name="Group 372">
      <g id="Group_359" data-name="Group 359">
        <path id="Path_548" data-name="Path 548" d="M355.835,205.87s-7.138-24.954-11.473-41.09c-4.319-16.14-10.624-41.317-10.624-41.317-.211-.873.655-1.072.906-.243,0,0,7.138,24.954,11.473,41.089,4.319,16.14,10.624,41.318,10.624,41.318C356.881,206.508,356.118,206.7,355.835,205.87Z" fill="#202a48"/>
      </g>
      <g id="Group_360" data-name="Group 360">
        <path id="Path_549" data-name="Path 549" d="M360.041,206.043s-3.8-18.177-5.981-29.929-5.116-30.09-5.116-30.09a.469.469,0,1,1,.923-.17s3.8,18.177,5.98,29.929c2.165,11.756,5.115,30.09,5.115,30.09A.468.468,0,1,1,360.041,206.043Z" fill="#202a48"/>
      </g>
      <g id="Group_361" data-name="Group 361">
        <path id="Path_550" data-name="Path 550" d="M401.947,206.12s5.1-21.962,8.647-36.034c3.56-14.068,9.5-35.817,9.5-35.817.211-.752,1.065-.508.909.229,0,0-5.1,21.96-8.647,36.033-3.561,14.069-9.5,35.818-9.5,35.818C402.578,207.074,401.819,206.869,401.947,206.12Z" fill="#202a48"/>
      </g>
      <g id="Group_362" data-name="Group 362">
        <path id="Path_551" data-name="Path 551" d="M397.751,206.232s2.651-17.336,4.624-28.448c1.989-11.112,5.49-28.3,5.49-28.3a.47.47,0,0,1,.924.165s-2.651,17.336-4.625,28.449c-1.989,11.111-5.49,28.295-5.49,28.295A.469.469,0,0,1,397.751,206.232Z" fill="#202a48"/>
      </g>
      <path id="Path_552" data-name="Path 552" d="M431.585,113.969c-1.966,9.486-6.536,18.47-12.591,26.585-1.653,2.216-3.42,4.361-5.281,6.442q-.912,1.019-1.851,2.007c-.252.262-.492.523-.754.775q-1.646,1.693-3.409,3.325c-2.489,2.343-5.135,4.612-7.833,6.851-.565.46-1.118.93-1.683,1.39-.083.073-.167.136-.251.209-3.368,2.772-6.766,5.532-10.019,8.356-1.946,1.684-3.838,3.388-5.627,5.135-.826.8-1.631,1.621-2.4,2.437-.315-.335-.629-.659-.952-.983-1.643-1.705-3.337-3.368-5.052-5-3.232-3.075-6.546-6.055-9.861-9.046-4.55-4.121-9.1-8.251-13.356-12.665l-.669-.7-.084-.084a87.151,87.151,0,0,1-14.024-19.357c-7.477-14.349-9.705-30.61-1.966-47.092a44.343,44.343,0,0,1,6.358-9.632l.011-.01a69.185,69.185,0,0,1,18.657-15.248,51.523,51.523,0,0,1,12.446-5.073,35.094,35.094,0,0,1,5.155-.909,27.55,27.55,0,0,1,4.341-.1,31.925,31.925,0,0,1,9.3.963,51.513,51.513,0,0,1,12.624,5.113h.009a69.989,69.989,0,0,1,13.9,10.228,62.912,62.912,0,0,1,4.769,5.031l.011.01a44.342,44.342,0,0,1,6.358,9.632A48.806,48.806,0,0,1,431.585,113.969Z" fill="#ff9076"/>
      <path id="Path_553" data-name="Path 553" d="M409.247,206.795c-.24,4.884-.492,11.138-1.746,16.576-1.266,5.469-3.546,10.1-7.875,11.649a20.424,20.424,0,0,1-7.4.921H369.538a20.445,20.445,0,0,1-7.394-.921c-6.6-2.353-8.439-11.88-9.171-20.612-.21-2.562-.325-5.051-.44-7.279,0-.115,0-.219-.01-.334h56.724Z" fill="#c69566"/>
      <g id="Group_366" data-name="Group 366">
        <g id="Group_363" data-name="Group 363">
          <path id="Path_554" data-name="Path 554" d="M389.419,157.025c-.523,4.58-1.025,8.931-1.506,12.884-1.946,1.684-3.838,3.388-5.627,5.135-.826.8-1.631,1.621-2.4,2.437-.315-.335-.629-.659-.952-.983-1.643-1.705-3.337-3.368-5.052-5-.93-7.7-2.018-17.015-3.075-26.793-2.541-23.688-4.863-50.052-4.287-62.372.554-8.21,1.087-16.492,3.053-24.064a49.181,49.181,0,0,1,1.821-5.679,35.094,35.094,0,0,1,5.155-.909,27.55,27.55,0,0,1,4.341-.1,31.925,31.925,0,0,1,9.3.963c3.535,9.014,4.193,19.451,4.895,29.794C395.756,96.85,392.409,130.849,389.419,157.025Z" fill="#ffefd9"/>
        </g>
        <g id="Group_364" data-name="Group 364">
          <path id="Path_555" data-name="Path 555" d="M364.017,162.453c-4.55-4.121-9.1-8.251-13.356-12.665-6.692-17.872-15.677-37.429-14.358-56.683a66.379,66.379,0,0,1,3.973-20.183l.011-.01a69.185,69.185,0,0,1,18.657-15.248c-6.221,10.342-8.428,22.851-8.428,35.808C350.16,117.546,359.739,139.456,364.017,162.453Z" fill="#ffefd9"/>
        </g>
        <g id="Group_365" data-name="Group 365">
          <path id="Path_556" data-name="Path 556" d="M423.062,115.59c-2.4,9.622-5.909,21.439-9.349,31.406q-.912,1.019-1.851,2.007c-.252.262-.492.523-.754.775q-1.646,1.693-3.409,3.325c-2.489,2.343-5.135,4.612-7.833,6.851-.565.46-1.118.93-1.683,1.39.052-.847.093-1.537.135-1.746,3.054-14.955,8.106-29.492,10.9-44.531a108.116,108.116,0,0,0,2.029-21.6,79.522,79.522,0,0,0-3.891-26.041,50.855,50.855,0,0,0-4.539-9.778,69.989,69.989,0,0,1,13.9,10.228,62.912,62.912,0,0,1,4.769,5.031l.011.01a66.379,66.379,0,0,1,3.974,20.183A72.572,72.572,0,0,1,423.062,115.59Z" fill="#ffefd9"/>
        </g>
      </g>
      <g id="Group_367" data-name="Group 367" opacity="0.15">
        <path id="Path_557" data-name="Path 557" d="M399.866,159.954c-.647.532-1.286,1.066-1.934,1.6-3.368,2.772-6.766,5.532-10.019,8.356-1.946,1.684-3.838,3.388-5.627,5.135-.826.8-1.631,1.621-2.4,2.437-.315-.335-.629-.659-.952-.983-1.643-1.705-3.337-3.368-5.052-5-3.232-3.075-6.546-6.055-9.861-9.046-4.55-4.121-9.1-8.251-13.356-12.665l-.753-.785c-16.983-17.987-27.483-41.967-15.99-66.449a44.343,44.343,0,0,1,6.358-9.632l.011-.01a69.185,69.185,0,0,1,18.657-15.248,51.523,51.523,0,0,1,12.446-5.073,35.094,35.094,0,0,1,5.155-.909,46.371,46.371,0,0,0-6.976,6.588c-19.786,22.935-17.339,63.71,1.234,86.436q1.209,1.475,2.51,2.854c3.765,4.11,9.706,7.206,16.106,9.465a85.905,85.905,0,0,0,8.9,2.573c.482.115.952.23,1.434.324A.474.474,0,0,0,399.866,159.954Z" fill="#7c7c7c"/>
      </g>
      <g id="Group_368" data-name="Group 368" opacity="0.25">
        <path id="Path_558" data-name="Path 558" d="M407.5,223.371c-1.266,5.469-3.546,10.1-7.875,11.649a20.424,20.424,0,0,1-7.4.921H369.538a20.445,20.445,0,0,1-7.394-.921c-6.6-2.353-8.439-11.88-9.171-20.612-.21-2.562-.325-5.051-.44-7.279,0-.115,0-.219-.01-.334h19.944C359.833,225.452,387.4,240.627,407.5,223.371Z" fill="#7c7c7c"/>
      </g>
      <path id="Path_559" data-name="Path 559" d="M409.122,211.427c-1.413,8.294-9.36,9.967-14.777,7.279a8.663,8.663,0,0,1-5.125-7.5c-.083.293-.167.585-.261.857a11.532,11.532,0,0,1-.753,1.789c-3.88,7.54-13.951,7.205-17.6,1.652a7.925,7.925,0,0,1-1.15-2.719c-3.055,8.513-13.471,8.335-16.482,1.621a11.171,11.171,0,0,1-.44-7.279c.022-.1.052-.219.084-.334v-.021c0,.01.01.01.01.021.21.386.419.752.648,1.1,0,0,.011,0,.011.01,4.518,6.892,13.3,6.7,16.431-1.108h.658a12.709,12.709,0,0,0,1,1.631c4.81,6.693,14.536,6.62,18.208-1.631h.616c4.078,8.418,14.411,9,18.166,0,.03-.053.272-.084.491-.074a.489.489,0,0,1,.126.011.483.483,0,0,1,.125.01c.084.011.136.021.136.053s.011.073.011.1A17.775,17.775,0,0,1,409.122,211.427Z" fill="#f4c88a"/>
      <g id="Group_369" data-name="Group 369" opacity="0.2">
        <path id="Path_560" data-name="Path 560" d="M370.375,206.795a12.709,12.709,0,0,0,1,1.631,12.576,12.576,0,0,0-1.119,4.621,23.457,23.457,0,0,0,.345,2.459,7.925,7.925,0,0,1-1.15-2.719c-3.055,8.513-13.471,8.335-16.482,1.621a11.171,11.171,0,0,1-.44-7.279c.022-.1.052-.219.084-.334v-.021c0,.01.01.01.01.021.21.386.419.752.648,1.1,0,0,.011,0,.011.01,4.518,6.892,13.3,6.7,16.431-1.108Z" fill="#7c7c7c"/>
      </g>
      <g id="Group_370" data-name="Group 370" opacity="0.4">
        <path id="Path_561" data-name="Path 561" d="M408.954,206.042a4.887,4.887,0,0,1,.021.554c-.178-.178-.356-.366-.543-.554Z" fill="#fff"/>
      </g>
      <g id="Group_371" data-name="Group 371" opacity="0.3">
        <path id="Path_562" data-name="Path 562" d="M409.122,211.427c-3.379,4.424-8.252,4.121-13.24,3.221-3.263-.669-6.034-4.267-6.254-7.853h.575c4.078,8.418,14.411,9,18.166,0,.03-.053.272-.084.491-.074a.489.489,0,0,1,.126.011.483.483,0,0,1,.125.01c.084.011.136.021.136.053s.011.073.011.1A17.775,17.775,0,0,1,409.122,211.427Z" fill="#fff"/>
      </g>
    </g>
  </g>
</svg>
