<svg xmlns="http://www.w3.org/2000/svg" width="302.448" height="289.403" viewBox="0 0 302.448 289.403">
  <g id="Group_451" data-name="Group 451" transform="translate(341.553 -7490.063)">
    <g id="Group_384" data-name="Group 384" transform="translate(-440 7337)">
      <path id="Path_565" data-name="Path 565" d="M268.013,238.431c-.89,22.776-12.728,47.04-28.206,68.31a238.918,238.918,0,0,1-41.216,43.725H168.786C109.207,297.1,69.425,230.681,125.124,175.912a78.753,78.753,0,0,1,29.993-18.594c1.256-.429,2.521-.826,3.8-1.182.345-.1.7-.2,1.045-.293.188-.052.386-.1.586-.157l1.506-.376c.428-.1.868-.209,1.3-.3l.156-.032c.607-.136,1.224-.261,1.83-.376a80.492,80.492,0,0,1,10.939-1.391,85.241,85.241,0,0,1,14.255.366,86.814,86.814,0,0,1,10.991,1.893h.011a91.335,91.335,0,0,1,12.12,3.785c.011,0,.021.011.031.011A90.073,90.073,0,0,1,243.2,178.024a81.905,81.905,0,0,1,14.17,17.873A78.2,78.2,0,0,1,268.013,238.431Z" fill="#7eccc6"/>
      <g id="Group_373" data-name="Group 373">
        <path id="Path_566" data-name="Path 566" d="M165.142,387.115s1.628-10.712,3.028-17.538c1.423-6.822,4.18-17.31,4.18-17.31.1-.362,1.261-.12,1.226.24,0,0-1.628,10.711-3.028,17.537-1.423,6.822-4.179,17.312-4.179,17.312C166.173,387.694,165.146,387.486,165.142,387.115Z" fill="#202a48"/>
      </g>
      <g id="Group_374" data-name="Group 374">
        <path id="Path_567" data-name="Path 567" d="M198.625,386.938s-2.522-10.372-3.794-17.132c-1.243-6.723-2.63-17.293-2.63-17.293-.04-.367,1.119-.6,1.223-.26,0,0,2.521,10.373,3.794,17.133,1.242,6.721,2.63,17.292,2.63,17.292C199.794,387.06,198.768,387.274,198.625,386.938Z" fill="#202a48"/>
      </g>
      <path id="Path_568" data-name="Path 568" d="M211.445,397.747l-.189,1.475-5.03,39.406-.492,3.838H160.775l-5.521-43.233-.188-1.485Z" fill="#dea076"/>
      <g id="Group_375" data-name="Group 375" opacity="0.3">
        <path id="Path_569" data-name="Path 569" d="M206.227,438.628l-.493,3.838H160.775l-5.709-44.719h28.749c-7.782,5.835-15.1,14.882-14.872,24.775.388,13.983,11.5,16.995,23.531,17.12A80.278,80.278,0,0,0,206.227,438.628Z" fill="#7c7c7c"/>
      </g>
      <path id="Path_570" data-name="Path 570" d="M206.383,283.389a219.2,219.2,0,0,1-20.717,65.32h-5.125c-6.316-13.688-12.288-27.775-16.5-42.637a232.546,232.546,0,0,1-5.262-90.744c3.317-21.867,8.326-42.689,17.5-62.12a85.241,85.241,0,0,1,14.255.366c5.7,12.571,11.012,25.486,14.86,39.061C213.118,221.97,210.6,253.27,206.383,283.389Z" fill="#fcfcfc"/>
      <path id="Path_571" data-name="Path 571" d="M175.51,349.3l-2.32.772c-13.545-13.543-25.728-28.2-38.309-42.176-22.129-24.566-55.615-103.168,20.236-150.574a77.879,77.879,0,0,1,10.218-2.719c-19.849,15.488-31.593,39.311-35.1,63.124-4.644,32.116,3.868,65.017,19.733,93.264C157.325,324.144,165.063,338.461,175.51,349.3Z" fill="#fcfcfc"/>
      <path id="Path_572" data-name="Path 572" d="M230.9,307.892c-12.592,13.972-24.775,28.633-38.319,42.176l-2.321-.772c10.448-10.835,18.186-25.152,25.549-38.309,15.865-28.247,24.378-61.148,19.734-93.264-3.44-23.384-14.819-46.758-34.009-62.256a91.335,91.335,0,0,1,12.12,3.785c.011,0,.021.011.031.011C285.592,206.857,252.722,283.66,230.9,307.892Z" fill="#fcfcfc"/>
      <g id="Group_376" data-name="Group 376">
        <path id="Path_573" data-name="Path 573" d="M167.055,414.31s-.432-5.491-.44-9.026c.008-3.536.44-9.028.44-9.028.022-.191.908-.184.938,0,0,0,.432,5.492.44,9.028-.008,3.535-.44,9.026-.44,9.026C167.9,414.5,167.114,414.5,167.055,414.31Z" fill="#202a48"/>
      </g>
      <path id="Path_574" data-name="Path 574" d="M172.185,427.019a6.782,6.782,0,0,1-1.254,3.6,5.669,5.669,0,0,1-8.011,1.463c-3.62-2.834-2.447-7.528-.231-11.754a52.629,52.629,0,0,1,4.9-7.32c.806,2.644,2.4,5.071,3.337,7.863A14.894,14.894,0,0,1,172.185,427.019Z" fill="#8d5448"/>
      <g id="Group_377" data-name="Group 377">
        <path id="Path_575" data-name="Path 575" d="M195.259,397.408a10.122,10.122,0,0,1-.587,1.824,18.4,18.4,0,0,1-2.425,4.006c-2.52,3.1-7.223,4.748-10.914,4.85a15.613,15.613,0,0,1-5.992-.864,13.439,13.439,0,0,1-5.186-3.282,11.962,11.962,0,0,1-2.533-4,13.652,13.652,0,0,1-.4-1.331c-.084-.313-.131-.483-.131-.483-.1-.385.774-.558.907-.234,0,0,.057.155.158.439s.219.706.454,1.193a11.087,11.087,0,0,0,2.508,3.443,12.434,12.434,0,0,0,4.746,2.667,15.41,15.41,0,0,0,5.394.639,17.006,17.006,0,0,0,5.356-1.044,15.351,15.351,0,0,0,2.561-1.234l.6-.35.5-.394a11.682,11.682,0,0,0,.929-.9,18.092,18.092,0,0,0,2.493-3.569,9.319,9.319,0,0,0,.647-1.589C194.532,396.881,195.309,397.008,195.259,397.408Z" fill="#202a48"/>
      </g>
      <g id="Group_378" data-name="Group 378">
        <path id="Path_576" data-name="Path 576" d="M211.436,396.318s0,.124,0,.353a9.361,9.361,0,0,1-.014.977,11.243,11.243,0,0,1-.66,3.3,8.243,8.243,0,0,1-6.692,5.429,9.266,9.266,0,0,1-4.417-.486,9.5,9.5,0,0,1-2.059-1.075A8.238,8.238,0,0,1,196,403.3a6.905,6.905,0,0,1-1.41-3.168,6.6,6.6,0,0,1-.088-1.011v-.364c.008-.291.9-.254.937-.022,0,0,.013.113.035.318a5.811,5.811,0,0,0,.165.855,5.888,5.888,0,0,0,1.4,2.5,7.107,7.107,0,0,0,1.4,1.132,8.247,8.247,0,0,0,5.384,1.039,7.337,7.337,0,0,0,3.344-1.3,7.247,7.247,0,0,0,2.333-2.859,10.6,10.6,0,0,0,.856-2.885,8.727,8.727,0,0,0,.108-.9l.031-.33C210.6,396.054,211.387,396.047,211.436,396.318Z" fill="#202a48"/>
      </g>
      <g id="Group_379" data-name="Group 379">
        <path id="Path_577" data-name="Path 577" d="M155.542,397.874a5.254,5.254,0,0,0,.151.84,4.2,4.2,0,0,0,.923,1.774,4.5,4.5,0,0,0,2.147,1.3,7.209,7.209,0,0,0,2.569.206,6.721,6.721,0,0,0,4.614-2.185,4.794,4.794,0,0,0,.928-1.81,5.273,5.273,0,0,0,.155-.836c.031-.171.918-.183.938.023l0,.267a4.343,4.343,0,0,1-.043.743,5.735,5.735,0,0,1-.867,2.41,6.68,6.68,0,0,1-2.448,2.247,8.038,8.038,0,0,1-3.123.951,7.615,7.615,0,0,1-3.26-.43,5.7,5.7,0,0,1-2.7-2.045,5.231,5.231,0,0,1-.9-2.426,5.862,5.862,0,0,1-.032-1.006C154.688,397.685,155.475,397.706,155.542,397.874Z" fill="#202a48"/>
      </g>
      <g id="Group_380" data-name="Group 380" opacity="0.15">
        <path id="Path_578" data-name="Path 578" d="M239.807,306.741a238.918,238.918,0,0,1-41.216,43.725H168.786C109.207,297.1,69.425,230.681,125.124,175.912a78.753,78.753,0,0,1,29.993-18.594,76.969,76.969,0,0,1,8.388-2.343c-20.938,13.114-33.643,49.561-34.041,68.584-1.569,42.877,35.557,78.958,76.344,85.232C217.521,310.653,228.836,309.534,239.807,306.741Z" fill="#7c7c7c"/>
      </g>
      <rect id="Rectangle_266" data-name="Rectangle 266" width="29.797" height="6.751" transform="translate(168.792 348.741)" fill="#dc9f70"/>
      <g id="Group_381" data-name="Group 381">
        <path id="Path_579" data-name="Path 579" d="M194.331,424.823s-.432-8.665-.439-14.243.439-14.244.439-14.244c.021-.3.909-.289.937,0,0,0,.432,8.665.44,14.244-.008,5.578-.44,14.243-.44,14.243C195.176,425.119,194.39,425.115,194.331,424.823Z" fill="#202a48"/>
      </g>
      <rect id="Rectangle_267" data-name="Rectangle 267" width="65.331" height="11.106" transform="translate(150.59 386.642)" fill="#ffab74"/>
      <path id="Path_580" data-name="Path 580" d="M199.124,437.54a6.469,6.469,0,0,1-1.076,2.374,5.651,5.651,0,0,1-8,1.464c-3.556-2.782-2.5-7.353-.355-11.5a50.553,50.553,0,0,1,5.02-7.571c.815,2.645,2.4,5.071,3.336,7.875C198.947,432.457,199.69,435.113,199.124,437.54Z" fill="#8d5448"/>
      <g id="Group_382" data-name="Group 382" opacity="0.3">
        <path id="Path_581" data-name="Path 581" d="M172.185,427.019a6.782,6.782,0,0,1-1.254,3.6,5.669,5.669,0,0,1-8.011,1.463c-3.62-2.834-2.447-7.528-.231-11.754C162.668,425.262,167.3,427.919,172.185,427.019Z" fill="#303030"/>
      </g>
      <g id="Group_383" data-name="Group 383" opacity="0.3">
        <path id="Path_582" data-name="Path 582" d="M199.124,437.54a6.469,6.469,0,0,1-1.076,2.374,5.651,5.651,0,0,1-8,1.464c-3.556-2.782-2.5-7.353-.355-11.5-.282,4.623,3.409,7.78,9.318,7.677A.4.4,0,0,0,199.124,437.54Z" fill="#303030"/>
      </g>
    </g>
    <g id="Group_358" data-name="Group 358" transform="translate(-441 7338)">
      <g id="Group_353" data-name="Group 353">
        <path id="Path_542" data-name="Path 542" d="M269.6,318.9l-1.626.038a26.349,26.349,0,0,1-4.043-.371,32.111,32.111,0,0,1-9.764-3.536,88.287,88.287,0,0,1-8.56-5.657c-2.559-1.861-4.538-3.18-4.538-3.18-.268-.191.2-.946.486-.8,0,0,2.125,1.156,4.814,2.841s6.005,3.768,8.671,5.205a37.7,37.7,0,0,0,9.169,3.787,27.38,27.38,0,0,0,3.818.641l1.56.1C269.912,318.063,269.935,318.848,269.6,318.9Z" fill="#5b1c18"/>
      </g>
      <g id="Group_354" data-name="Group 354">
        <path id="Path_543" data-name="Path 543" d="M258.5,336.582l-1.8-.113c-1.121-.1-2.686-.279-4.457-.577a44.2,44.2,0,0,1-11.05-3.452,27.807,27.807,0,0,1-9.219-7.12c-.522-.755-1.063-1.425-1.45-2.1-.37-.683-.719-1.276-.966-1.792-.425-1.065-.679-1.705-.679-1.705-.135-.36.707-.643.874-.338l.761,1.557c.268.468.639,1,1.025,1.615.4.6.956,1.2,1.48,1.872a30.172,30.172,0,0,0,8.97,6.374,53.683,53.683,0,0,0,10.531,3.741c1.705.4,3.22.675,4.308.856l1.75.243C258.934,335.775,258.87,336.56,258.5,336.582Z" fill="#5b1c18"/>
      </g>
      <path id="Path_544" data-name="Path 544" d="M401.895,354.713c-6.327,5.375-11.252,3.774-16.806,1.652a51.11,51.11,0,0,0-7.561-2.489c-.564-.136-1.151-.241-1.746-.324a45.555,45.555,0,0,0-6.306-.22c-5.387.167-10.667,1.067-15.9,1.443a47.3,47.3,0,0,1-8.857-.062c-10.856-1.413-16.912-7.813-25.037-12.655a42.618,42.618,0,0,0-6.014-3.012A32.467,32.467,0,0,0,307.2,337.2a62.914,62.914,0,0,0-16.042-.5c-9.925.691-20.1,2.447-29.252,1.161-.313-.041-.617-.094-.92-.146-.2-.031-.4-.063-.586-.1-.418-.083-.836-.156-1.244-.261-.3-.063-.6-.136-.9-.208-.586-.136-1.161-.293-1.736-.482-.188-.053-.356-.115-.534-.167-.481-.157-.951-.325-1.422-.513-.219-.084-.439-.167-.659-.261-.282-.116-.564-.242-.847-.366-.01,0-.01-.011-.021-.011,7.7-2.279,15.655-8.555,15.655-16.482,0-.146-.009-.282-.009-.428,2.656-.6,5.626-1.276,8.8-1.945,7.959-1.674,17.182-3.263,25.78-3.379,6.8-.1,13.217.743,18.311,3.211a18.6,18.6,0,0,1,2.248,1.244,16.365,16.365,0,0,1,5.24,5.292c3.2,4.916,4.487,10.584,12.173,13.283a24.728,24.728,0,0,0,9.81.94c5.636-.439,11.2-1.944,17.046-1.088h.01a21.356,21.356,0,0,1,7.384,2.469,26.015,26.015,0,0,1,4.11,2.77,78.665,78.665,0,0,1,6.19,5.794C389.952,351.126,394.178,354.713,401.895,354.713Z" fill="#fe7950"/>
      <g id="Group_355" data-name="Group 355" opacity="0.2">
        <path id="Path_545" data-name="Path 545" d="M353.579,354.775a47.3,47.3,0,0,1-8.857-.062c-10.856-1.413-16.912-7.813-25.037-12.655,1.664-7.112,4.737-14.087,9.381-19.2,3.2,4.916,4.487,10.584,12.173,13.283a24.728,24.728,0,0,0,9.81.94,25.776,25.776,0,0,0-.053,7.091A65.73,65.73,0,0,0,353.579,354.775Z" fill="#7c7c7c"/>
      </g>
      <g id="Group_356" data-name="Group 356" opacity="0.2">
        <path id="Path_546" data-name="Path 546" d="M401.895,354.713c-6.327,5.375-11.252,3.774-16.806,1.652a19.158,19.158,0,0,1,.7-9.34C389.952,351.126,394.178,354.713,401.895,354.713Z" fill="#7c7c7c"/>
      </g>
      <g id="Group_357" data-name="Group 357" opacity="0.2">
        <path id="Path_547" data-name="Path 547" d="M277.487,316.489a30.907,30.907,0,0,1-5.271,10.95c-3.419,4.893-6.756,8.324-10.312,10.415a31.786,31.786,0,0,1-8.868-2.51c7.7-2.279,15.655-8.555,15.655-16.482,0-.146-.009-.282-.009-.428C271.338,317.838,274.308,317.158,277.487,316.489Z" fill="#7c7c7c"/>
      </g>
    </g>
  </g>
</svg>
