<svg xmlns="http://www.w3.org/2000/svg" width="139" height="139" viewBox="0 0 139 139">
  <g id="Group_465" data-name="Group 465" transform="translate(-9108 -9748)">
    <rect id="Rectangle_283" data-name="Rectangle 283" width="139" height="139" rx="10" transform="translate(9108 9748)" fill="#ff6d94"/>
    <g id="customer_relationship" data-name="customer relationship" transform="translate(9132.472 9772.472)">
      <path id="Path_657" data-name="Path 657" d="M80.969,71.286A8.455,8.455,0,0,0,77.261,56.2V54.665A7.069,7.069,0,0,0,70.2,47.6H46.192V42.458a4.377,4.377,0,0,0,7.046-3.343,4.4,4.4,0,0,0,4.237-4.237,4.4,4.4,0,0,0,4.237-4.237,4.4,4.4,0,0,0,2.961-7.509l-.294-.294a13.387,13.387,0,0,0-19.6-18.161A13.382,13.382,0,0,0,25.891,23.628a4.379,4.379,0,0,0,3.37,7.013A4.4,4.4,0,0,0,33.5,34.878a4.4,4.4,0,0,0,4.237,4.237,4.338,4.338,0,0,0,5.633,4.055V47.6H19.359A7.069,7.069,0,0,0,12.3,54.665V56.2A8.455,8.455,0,0,0,8.589,71.286,12.724,12.724,0,0,0,1,82.91v5.649H26.42V82.91a12.724,12.724,0,0,0-7.589-11.624A8.455,8.455,0,0,0,15.122,56.2V54.665a4.242,4.242,0,0,1,4.237-4.237H43.367V56.2a8.455,8.455,0,0,0-3.709,15.081A12.724,12.724,0,0,0,32.069,82.91v5.649h25.42V82.91A12.724,12.724,0,0,0,49.9,71.286,8.455,8.455,0,0,0,46.192,56.2V50.428H70.2a4.242,4.242,0,0,1,4.237,4.237V56.2a8.455,8.455,0,0,0-3.709,15.081A12.724,12.724,0,0,0,63.138,82.91v5.649h25.42V82.91a12.724,12.724,0,0,0-7.589-11.624ZM53.98,3.824a10.559,10.559,0,0,1,8.382,17l-6.493-6.493A11.406,11.406,0,0,0,57.077,13.3l-2-2a8.182,8.182,0,0,1-5.823,2.411H47.019l-2.411,2.411a1.406,1.406,0,0,1-1,.414H38.3a.585.585,0,0,1-.414-1L46.505,6.92a10.505,10.505,0,0,1,7.475-3.1Zm-18.4,0a10.49,10.49,0,0,1,7.19,2.837l-6.878,6.878a3.41,3.41,0,0,0,2.412,5.82h5.306a4.211,4.211,0,0,0,3-1.241l1.583-1.583h1.069a11.041,11.041,0,0,0,4.052-.771l9.366,9.366a1.584,1.584,0,0,1-2.24,2.24l-3.36-3.36-2,2,3.36,3.36a1.584,1.584,0,0,1-2.24,2.24l-3.36-3.36-2,2L54.2,33.6a1.584,1.584,0,0,1-2.24,2.24l-3.36-3.36-2,2,3.36,3.36a1.584,1.584,0,0,1-2.24,2.24l-.472-.472a4.394,4.394,0,0,0-3.9-6.111,4.4,4.4,0,0,0-4.237-4.237,4.4,4.4,0,0,0-4.237-4.237,4.4,4.4,0,0,0-4.392-4.252,4.357,4.357,0,0,0-2.6.863,10.56,10.56,0,0,1,7.688-17.81ZM27.832,26.249a1.577,1.577,0,0,1,.463-1.12l1.07-1.07a1.584,1.584,0,0,1,2.24,2.24l-1.07,1.07a1.584,1.584,0,0,1-2.7-1.12Zm4.237,4.237a1.577,1.577,0,0,1,.463-1.12L33.6,28.3a1.584,1.584,0,0,1,2.24,2.24l-1.07,1.07a1.584,1.584,0,0,1-2.7-1.12Zm4.237,4.237a1.577,1.577,0,0,1,.463-1.12l1.07-1.07a1.584,1.584,0,0,1,2.24,2.24l-1.07,1.07a1.584,1.584,0,0,1-2.7-1.12Zm5.82,5.82a1.584,1.584,0,0,1-1.12-2.7l1.07-1.07a1.584,1.584,0,0,1,2.24,2.24l-1.07,1.07A1.577,1.577,0,0,1,42.126,40.543ZM23.6,82.91v2.824H20.771V80.085H17.947v5.649H9.473V80.085H6.649v5.649H3.824V82.91a9.886,9.886,0,1,1,19.771,0ZM19.359,64.551A5.649,5.649,0,1,1,13.71,58.9,5.655,5.655,0,0,1,19.359,64.551ZM54.665,82.91v2.824H51.84V80.085H49.016v5.649H40.543V80.085H37.718v5.649H34.894V82.91a9.886,9.886,0,1,1,19.771,0ZM50.428,64.551A5.649,5.649,0,1,1,44.779,58.9,5.655,5.655,0,0,1,50.428,64.551Zm19.771,0A5.649,5.649,0,1,1,75.848,70.2,5.655,5.655,0,0,1,70.2,64.551ZM85.734,85.734H82.91V80.085H80.085v5.649H71.612V80.085H68.787v5.649H65.963V82.91a9.886,9.886,0,1,1,19.771,0Z" fill="#fff"/>
      <path id="Path_658" data-name="Path 658" d="M38,38h2.824v2.824H38Z" transform="translate(15.253 15.253)" fill="#fff"/>
      <path id="Path_659" data-name="Path 659" d="M42,38h2.824v2.824H42Z" transform="translate(16.902 15.253)" fill="#fff"/>
      <path id="Path_660" data-name="Path 660" d="M46,38h2.824v2.824H46Z" transform="translate(18.551 15.253)" fill="#fff"/>
      <path id="Path_661" data-name="Path 661" d="M16,38h2.824v2.824H16Z" transform="translate(6.184 15.253)" fill="#fff"/>
      <path id="Path_662" data-name="Path 662" d="M20,38h2.824v2.824H20Z" transform="translate(7.832 15.253)" fill="#fff"/>
      <path id="Path_663" data-name="Path 663" d="M24,38h2.824v2.824H24Z" transform="translate(9.481 15.253)" fill="#fff"/>
    </g>
  </g>
</svg>
