<svg xmlns="http://www.w3.org/2000/svg" width="139" height="139" viewBox="0 0 139 139">
  <g id="Group_466" data-name="Group 466" transform="translate(-8712 -9915)">
    <rect id="Rectangle_284" data-name="Rectangle 284" width="139" height="139" rx="10" transform="translate(8712 9915)" fill="#cad769"/>
    <g id="decision_support" data-name="decision support" transform="translate(8731.09 9934.646)">
      <path id="Path_664" data-name="Path 664" d="M53.122,54.4a4.686,4.686,0,0,0-1.753.346,4.67,4.67,0,0,0-7.67-2.262,4.567,4.567,0,0,0-4.712-.936v-3.43h7.5l1.12-4.4c.5-.187,1-.4,1.5-.628l3.909,2.323,8.39-8.39-2.324-3.909c.231-.5.441-1,.628-1.5l4.4-1.12V18.624l-4.4-1.12c-.187-.5-.4-1-.628-1.5l2.324-3.909L53.021,3.7,49.112,6.027c-.5-.231-1-.441-1.5-.628L46.489,1H34.624L33.506,5.4c-.5.187-1,.4-1.5.628L28.1,3.706l-8.39,8.39L22.03,16c-.231.5-.441,1-.628,1.5L17,18.626V30.491l4.4,1.12c.187.5.4,1,.628,1.5L19.7,37.021l8.39,8.39,1.47-.875V57.942a11.6,11.6,0,0,0-8.451-3.611,4.113,4.113,0,0,0-3.68,5.951l1.831,3.661a8.352,8.352,0,0,1,.876,3.713v6.452a11.04,11.04,0,0,0,1.146,4.887l3.565,7.18v3.062a4.705,4.705,0,0,0-3.141,4.423v4.712H56.263V93.66a4.705,4.705,0,0,0-3.141-4.423V86.331l2.513-3.35a11.053,11.053,0,0,0,2.2-6.6V59.109A4.717,4.717,0,0,0,53.122,54.4ZM33.069,32.586a10.978,10.978,0,1,1,7.488,2.965,11.159,11.159,0,0,1-1.918-.187,4.713,4.713,0,0,0-4.364-2.954A4.644,4.644,0,0,0,33.069,32.586Zm-4.481,8.877-4.936-4.936,1.957-3.29-.4-.773A17.241,17.241,0,0,1,24.1,29.816l-.265-.829-3.7-.938V21.068l3.7-.939L24.1,19.3a17.241,17.241,0,0,1,1.106-2.648l.4-.773-1.957-3.29,4.936-4.936L31.879,9.61l.774-.4A17.285,17.285,0,0,1,35.3,8.1l.829-.264.941-3.7h6.981l.941,3.7.829.264A17.285,17.285,0,0,1,48.46,9.207l.774.4,3.292-1.957,4.936,4.936-1.957,3.29.4.773A17.24,17.24,0,0,1,57.01,19.3l.265.829,3.7.938v6.981l-3.7.939-.265.829a17.241,17.241,0,0,1-1.106,2.648l-.4.773,1.957,3.29-4.936,4.936-3.292-1.957-.774.4a17.285,17.285,0,0,1-2.643,1.106l-.829.264-.941,3.7H38.987V38.593a14.539,14.539,0,0,0,1.571.1,14.153,14.153,0,1,0-10.124-4.281,4.675,4.675,0,0,0-.87,2.711v3.761ZM53.122,95.231H24.853V93.66a1.572,1.572,0,0,1,1.571-1.571H51.551a1.572,1.572,0,0,1,1.571,1.571Zm1.571-18.846A7.9,7.9,0,0,1,53.122,81.1l-3.141,4.189v3.664H27.994V85.44L24.1,77.6a7.912,7.912,0,0,1-.818-3.493V67.657a11.508,11.508,0,0,0-1.208-5.118l-1.831-3.661a.966.966,0,0,1-.1-.433,1.015,1.015,0,0,1,1.121-.972,8.314,8.314,0,0,1,8.3,8.3v5.831h3.141V37.122a1.571,1.571,0,1,1,3.141,0V62.25h3.141V55.968a1.571,1.571,0,1,1,3.141,0V62.25h3.141V55.968a1.571,1.571,0,1,1,3.141,0V62.25h3.141V59.109a1.571,1.571,0,0,1,3.141,0Z" transform="translate(9.509 0)" fill="#fff"/>
      <path id="Path_665" data-name="Path 665" d="M34.853,26.705A7.853,7.853,0,1,0,27,18.853,7.861,7.861,0,0,0,34.853,26.705Zm0-12.564a4.712,4.712,0,1,1-4.712,4.712A4.717,4.717,0,0,1,34.853,14.141Z" transform="translate(15.214 5.705)" fill="#fff"/>
      <path id="Path_666" data-name="Path 666" d="M64.474,65.808l2.513,1.885H48.141V30H45V70.833H66.987l-2.513,1.885,1.885,2.513,7.958-5.968-7.958-5.968Z" transform="translate(25.483 16.545)" fill="#fff"/>
      <path id="Path_667" data-name="Path 667" d="M62.192,49.673l2.513,1.885H52.141V28H49V54.7H64.705l-2.513,1.885L64.077,59.1l7.958-5.968L64.077,47.16Z" transform="translate(27.765 15.404)" fill="#fff"/>
      <path id="Path_668" data-name="Path 668" d="M59.91,40.449l1.885,2.513,7.958-5.968-7.958-5.968L59.91,33.538l2.513,1.885H56.141V26H53V38.564h9.423Z" transform="translate(30.047 14.263)" fill="#fff"/>
      <path id="Path_669" data-name="Path 669" d="M45,26h3.141v3.141H45Z" transform="translate(25.483 14.263)" fill="#fff"/>
      <path id="Path_670" data-name="Path 670" d="M49,24h3.141v3.141H49Z" transform="translate(27.765 13.122)" fill="#fff"/>
      <path id="Path_671" data-name="Path 671" d="M53,22h3.141v3.141H53Z" transform="translate(30.047 11.981)" fill="#fff"/>
      <path id="Path_672" data-name="Path 672" d="M10.175,56.583,7.663,54.7h9.423V28H13.945V51.558H7.663l2.513-1.885L8.291,47.16.333,53.128,8.291,59.1Z" transform="translate(0 15.404)" fill="#fff"/>
      <path id="Path_673" data-name="Path 673" d="M20.227,67.692H7.663l2.513-1.885L8.291,63.295.333,69.263l7.958,5.968,1.885-2.513L7.663,70.833H23.368V30H20.227Z" transform="translate(0 16.545)" fill="#fff"/>
      <path id="Path_674" data-name="Path 674" d="M13,26h3.141v3.141H13Z" transform="translate(7.227 14.263)" fill="#fff"/>
      <path id="Path_675" data-name="Path 675" d="M9,24h3.141v3.141H9Z" transform="translate(4.945 13.122)" fill="#fff"/>
    </g>
  </g>
</svg>
