<svg xmlns="http://www.w3.org/2000/svg" width="139" height="139" viewBox="0 0 139 139">
  <g id="Group_464" data-name="Group 464" transform="translate(-8910 -9748)">
    <rect id="Rectangle_282" data-name="Rectangle 282" width="139" height="139" rx="10" transform="translate(8910 9748)" fill="#69d7bf"/>
    <g id="ecommerce" transform="translate(8920.589 9758.589)">
      <path id="Path_676" data-name="Path 676" d="M18.855,91.212a.357.357,0,0,1,.357-.357h5.353V88H19.212A3.216,3.216,0,0,0,16,91.212v13.918h2.855Z" transform="translate(0 -59.153)" fill="#fff"/>
      <rect id="Rectangle_287" data-name="Rectangle 287" width="6.868" height="3.434" transform="translate(55.389 77.137)" fill="#fff"/>
      <rect id="Rectangle_288" data-name="Rectangle 288" width="2.289" height="4.579" transform="translate(84.005 40.509)" fill="#fff"/>
      <path id="Path_677" data-name="Path 677" d="M331.6,206.192l.005-.033,1.081-6.845a1.428,1.428,0,0,0-.829-1.526l-12.829-5.72a1.428,1.428,0,0,0-1.163,0l-12.829,5.72a1.427,1.427,0,0,0-.829,1.526l1.069,6.789.006.033a23.367,23.367,0,0,0,9.218,14.652l3.112,2.292a1.427,1.427,0,0,0,1.686.005l2.965-2.155A23.358,23.358,0,0,0,331.6,206.192Zm-13.136,13.97-2.271-1.673a20.521,20.521,0,0,1-8.1-12.847l-.9-5.692,11.249-5.017,11.249,5.016-.907,5.748a20.514,20.514,0,0,1-8.2,12.923Z" transform="translate(-236.768 -144.549)" fill="#fff"/>
      <path id="Path_678" data-name="Path 678" d="M359.19,242.343l-7.555,7.555-3.273-3.273-2.019,2.019,4.282,4.282a1.427,1.427,0,0,0,2.019,0l8.565-8.565Z" transform="translate(-271.4 -185.957)" fill="#fff"/>
      <path id="Path_679" data-name="Path 679" d="M265.694,156.282v-2.855A1.427,1.427,0,0,0,264.267,152H241.427A1.427,1.427,0,0,0,240,153.427v18.557a1.427,1.427,0,0,0,1.427,1.427h7.137v-2.855h-5.71v-15.7h19.984v1.427Z" transform="translate(-184.032 -111.734)" fill="#fff"/>
      <path id="Path_680" data-name="Path 680" d="M84.993,37.412H86.42a4.981,4.981,0,0,0,3.569-1.5,4.981,4.981,0,0,0,3.569,1.5h1.427a4.981,4.981,0,0,0,3.569-1.5,4.981,4.981,0,0,0,3.569,1.5h1.427a4.981,4.981,0,0,0,3.569-1.5,4.981,4.981,0,0,0,3.569,1.5h1.427a4.981,4.981,0,0,0,3.569-1.5,4.981,4.981,0,0,0,3.569,1.5h1.427a4.981,4.981,0,0,0,3.569-1.5,4.981,4.981,0,0,0,3.569,1.5h1.427a4.981,4.981,0,0,0,3.569-1.5,4.981,4.981,0,0,0,3.569,1.5h1.427a5,5,0,0,0,5-5V24.562c0-.022,0-.044,0-.066v-.011a.11.11,0,0,0,0-.02,1.419,1.419,0,0,0-.232-.685l0-.005-.011-.016-.009-.012-.007-.011-.018-.024,0,0-.018-.022,0,0-.007-.009-5.71-7.137A1.427,1.427,0,0,0,135.667,16H87.134a1.427,1.427,0,0,0-1.115.535l-5.71,7.137-.007.009,0,0-.018.022,0,0-.018.024-.007.011-.009.012-.011.016,0,.005a1.419,1.419,0,0,0-.232.685.106.106,0,0,1,0,.02V24.5c0,.022,0,.044,0,.066v7.854A5,5,0,0,0,84.993,37.412Zm1.427-2.855H84.993a2.143,2.143,0,0,1-2.141-2.141V25.992h5.71v6.423A2.143,2.143,0,0,1,86.42,34.557Zm8.565,0H93.557a2.143,2.143,0,0,1-2.141-2.141V25.992h5.71v6.423A2.143,2.143,0,0,1,94.985,34.557Zm8.565,0h-1.427a2.143,2.143,0,0,1-2.141-2.141V25.992h5.71v6.423A2.143,2.143,0,0,1,103.55,34.557Zm8.565,0h-1.427a2.143,2.143,0,0,1-2.141-2.141V25.992h5.71v6.423A2.143,2.143,0,0,1,112.114,34.557Zm8.565,0h-1.427a2.143,2.143,0,0,1-2.141-2.141V25.992h5.71v6.423A2.143,2.143,0,0,1,120.679,34.557Zm8.565,0h-1.427a2.143,2.143,0,0,1-2.141-2.141V25.992h5.71v6.423A2.143,2.143,0,0,1,129.243,34.557Zm10.706-2.141a2.144,2.144,0,0,1-2.141,2.141h-1.427a2.143,2.143,0,0,1-2.141-2.141V25.992h5.71Zm-4.968-13.561,3.426,4.282H84.394l3.426-4.282Z" transform="translate(-52.577)" fill="#fff"/>
      <path id="Path_681" data-name="Path 681" d="M19.212,194.823a.357.357,0,0,1-.357-.357v-8.208H70.243V183.4h-41.4v-2.855H67.388v-2.855H53.113V153.427A1.427,1.427,0,0,0,51.686,152H37.412a1.427,1.427,0,0,0-1.427,1.427v24.267H33.129V152H30.274v25.694H27.42a1.427,1.427,0,0,0-1.427,1.427V183.4H18.855V160.565H16v33.9a3.215,3.215,0,0,0,3.212,3.212H48.831v1.993a5.7,5.7,0,0,1-3.9,5.417l-1.244.415a4.99,4.99,0,0,0-3.416,4.74v1.71a1.427,1.427,0,0,0,1.427,1.427H75.953a1.427,1.427,0,0,0,1.427-1.427v-1.71a4.99,4.99,0,0,0-3.416-4.74l-1.244-.415a5.7,5.7,0,0,1-3.9-5.417v-1.993h11.42v-2.855Zm19.627-39.968h11.42v22.839H38.839ZM71.817,207.8l1.244.415a2.138,2.138,0,0,1,1.464,2.031v.283h-31.4v-.283a2.139,2.139,0,0,1,1.464-2.031l1.245-.415a8.554,8.554,0,0,0,5.856-8.125v-1.993H65.96v1.993a8.554,8.554,0,0,0,5.856,8.125Z" transform="translate(0 -111.734)" fill="#fff"/>
      <path id="Path_682" data-name="Path 682" d="M407.345,88h-5.353v2.855h5.353a.357.357,0,0,1,.357.357v39.612h-5.71v2.855h5.71v8.208a.357.357,0,0,1-.357.357H392V145.1h15.345a3.216,3.216,0,0,0,3.212-3.212V91.212A3.216,3.216,0,0,0,407.345,88Z" transform="translate(-308.91 -59.153)" fill="#fff"/>
    </g>
  </g>
</svg>
