<svg xmlns="http://www.w3.org/2000/svg" width="83.478" height="89.043" viewBox="0 0 83.478 89.043">
  <g id="enterprise" transform="translate(-2)">
    <path id="Path_683" data-name="Path 683" d="M42.356,51.44,33.591,47.6l-3.073-4.1A6.959,6.959,0,0,0,34,37.478V24.956A6.964,6.964,0,0,0,27.043,18H21.478a6.964,6.964,0,0,0-6.956,6.956v2.783a1.391,1.391,0,0,0,.952,1.32l8.348,2.783a1.385,1.385,0,0,0,1.212-.163L29.207,28.9l-1.543-2.315-3.608,2.406L17.3,26.736V24.956a4.179,4.179,0,0,1,4.174-4.174h5.565a4.179,4.179,0,0,1,4.174,4.174V37.478a4.179,4.179,0,0,1-4.174,4.174H21.478A4.179,4.179,0,0,1,17.3,37.478V31.913H14.522v5.565A6.959,6.959,0,0,0,18,43.5l-3.055,4.074-8.58,3.439A6.922,6.922,0,0,0,2,57.472V80.608A1.391,1.391,0,0,0,3.391,82H7.565V79.217H4.783V57.472A4.154,4.154,0,0,1,7.4,53.6l6.716-2.692-.97,5.821a1.391,1.391,0,0,0,1.372,1.621,1.364,1.364,0,0,0,.381-.054L21.176,56.5l-2.47,19.76a1.391,1.391,0,0,0,.41,1.17l4.289,4.174a1.391,1.391,0,0,0,.97.394H24.4a1.39,1.39,0,0,0,.978-.422L29.432,77.4a1.389,1.389,0,0,0,.383-1.142L27.345,56.5l6.273,1.792a1.364,1.364,0,0,0,.381.054,1.391,1.391,0,0,0,1.372-1.621L34.417,51l6.821,2.988a4.174,4.174,0,0,1,2.5,3.823V68.086h2.783V57.812a6.958,6.958,0,0,0-4.166-6.372ZM20.782,44.434h6.956l2.873,3.832-3.176,2.118L24.261,52.5l-3.176-2.118-3.176-2.118Zm-3.862,6.6L20.9,53.687l-4.646,1.327ZM26.971,75.943l-2.623,2.7-2.8-2.72,2.532-20.249.1-.029a1.379,1.379,0,0,0,.152,0l.1.029Zm.648-22.256L31.6,51.032l.665,3.982Z" transform="translate(0 7.043)" fill="#1f4e9c"/>
    <path id="Path_684" data-name="Path 684" d="M32.783,64.348H30V67.13h4.174a1.391,1.391,0,0,0,1.391-1.391V56H32.783Z" transform="translate(10.956 21.912)" fill="#1f4e9c"/>
    <path id="Path_685" data-name="Path 685" d="M8,50h2.783V69.478H8Z" transform="translate(2.348 19.564)" fill="#1f4e9c"/>
    <path id="Path_686" data-name="Path 686" d="M26,50h2.783V69.478H26Z" transform="translate(9.391 19.564)" fill="#1f4e9c"/>
    <path id="Path_687" data-name="Path 687" d="M28,14h2.783V30.7H28Z" transform="translate(10.173 5.478)" fill="#1f4e9c"/>
    <path id="Path_688" data-name="Path 688" d="M34,14h2.783V30.7H34Z" transform="translate(12.521 5.478)" fill="#1f4e9c"/>
    <path id="Path_689" data-name="Path 689" d="M28,30h2.783V41.13H28Z" transform="translate(10.173 11.739)" fill="#1f4e9c"/>
    <path id="Path_690" data-name="Path 690" d="M34,30h2.783V46.7H34Z" transform="translate(12.521 11.739)" fill="#1f4e9c"/>
    <path id="Path_691" data-name="Path 691" d="M22,14h2.783v2.783H22Z" transform="translate(7.826 5.478)" fill="#1f4e9c"/>
    <path id="Path_692" data-name="Path 692" d="M45.391,39.478h16.7a1.391,1.391,0,0,0,1.391-1.391v-16.7A1.391,1.391,0,0,0,62.087,20h-16.7A1.391,1.391,0,0,0,44,21.391v16.7A1.391,1.391,0,0,0,45.391,39.478ZM60.7,36.7H55.13V22.783H60.7ZM46.783,22.783h5.565V36.7H46.783Z" transform="translate(16.434 7.826)" fill="#1f4e9c"/>
    <path id="Path_693" data-name="Path 693" d="M80,16.7V13.913H52.173V12.522a1.391,1.391,0,0,0-1.391-1.391H46.608V1.391A1.391,1.391,0,0,0,45.217,0H27.13a1.4,1.4,0,0,0-1.048.474L16.344,11.6a1.4,1.4,0,0,0-.344.917v9.739h2.783V13.913H39.652V11.13H20.458l7.3-8.348H43.826v9.739a1.391,1.391,0,0,0,1.391,1.391h4.174V86.26H43.826v2.783H78.608A1.391,1.391,0,0,0,80,87.651V20.869a1.39,1.39,0,0,0-1.379-1.391l-2.8-.024V16.7ZM64.7,19.361V16.7h2.783v2.689Zm-5.565-.046V16.7h2.783v2.642ZM56.347,16.7v2.6l-4.174-.035V16.7ZM60.521,86.26v-16.7h8.348v16.7Zm11.13,0V68.173a1.391,1.391,0,0,0-1.391-1.391H59.13a1.391,1.391,0,0,0-1.391,1.391V86.26H52.173V61.217H77.217V86.26Zm5.565-33.391H71.652v2.783h5.565v2.783H52.173V55.652h16.7V52.869h-16.7V22.039l25.043.21ZM73.043,19.431l-2.783-.024V16.7h2.783Z" transform="translate(5.478)" fill="#1f4e9c"/>
  </g>
</svg>
