<svg xmlns="http://www.w3.org/2000/svg" width="139" height="139" viewBox="0 0 139 139">
  <g id="Group_468" data-name="Group 468" transform="translate(-9108 -9915)">
    <rect id="Rectangle_286" data-name="Rectangle 286" width="139" height="139" rx="10" transform="translate(9108 9915)" fill="#ffba01"/>
    <g id="point_of_sales" data-name="point of sales" transform="translate(9132 9938.316)">
      <path id="Path_694" data-name="Path 694" d="M18.8,37H15.9A2.9,2.9,0,0,0,13,39.9v2.9a2.9,2.9,0,0,0,2.9,2.9h2.9a2.9,2.9,0,0,0,2.9-2.9V39.9A2.9,2.9,0,0,0,18.8,37Zm-2.9,5.8V39.9h2.9l0,2.9Z" transform="translate(5.398 16.336)" fill="#fff"/>
      <path id="Path_695" data-name="Path 695" d="M18.8,45H15.9A2.9,2.9,0,0,0,13,47.9v2.9a2.9,2.9,0,0,0,2.9,2.9h2.9a2.9,2.9,0,0,0,2.9-2.9V47.9A2.9,2.9,0,0,0,18.8,45Zm-2.9,5.8V47.9h2.9l0,2.9Z" transform="translate(5.398 19.934)" fill="#fff"/>
      <path id="Path_696" data-name="Path 696" d="M18.8,53H15.9A2.9,2.9,0,0,0,13,55.9v2.9a2.9,2.9,0,0,0,2.9,2.9h2.9a2.9,2.9,0,0,0,2.9-2.9V55.9A2.9,2.9,0,0,0,18.8,53Zm-2.9,5.8V55.9h2.9l0,2.9Z" transform="translate(5.398 23.533)" fill="#fff"/>
      <path id="Path_697" data-name="Path 697" d="M10.8,37H7.9A2.9,2.9,0,0,0,5,39.9v2.9a2.9,2.9,0,0,0,2.9,2.9h2.9a2.9,2.9,0,0,0,2.9-2.9V39.9A2.9,2.9,0,0,0,10.8,37ZM7.9,42.8V39.9h2.9l0,2.9Z" transform="translate(1.799 16.336)" fill="#fff"/>
      <path id="Path_698" data-name="Path 698" d="M10.8,45H7.9A2.9,2.9,0,0,0,5,47.9v2.9a2.9,2.9,0,0,0,2.9,2.9h2.9a2.9,2.9,0,0,0,2.9-2.9V47.9A2.9,2.9,0,0,0,10.8,45ZM7.9,50.8V47.9h2.9l0,2.9Z" transform="translate(1.799 19.934)" fill="#fff"/>
      <path id="Path_699" data-name="Path 699" d="M10.8,53H7.9A2.9,2.9,0,0,0,5,55.9v2.9a2.9,2.9,0,0,0,2.9,2.9h2.9a2.9,2.9,0,0,0,2.9-2.9V55.9A2.9,2.9,0,0,0,10.8,53ZM7.9,58.8V55.9h2.9l0,2.9Z" transform="translate(1.799 23.533)" fill="#fff"/>
      <path id="Path_700" data-name="Path 700" d="M26.8,37H23.9A2.9,2.9,0,0,0,21,39.9v2.9a2.9,2.9,0,0,0,2.9,2.9h2.9a2.9,2.9,0,0,0,2.9-2.9V39.9A2.9,2.9,0,0,0,26.8,37Zm-2.9,5.8V39.9h2.9l0,2.9Z" transform="translate(8.996 16.336)" fill="#fff"/>
      <path id="Path_701" data-name="Path 701" d="M26.8,45H23.9A2.9,2.9,0,0,0,21,47.9v2.9a2.9,2.9,0,0,0,2.9,2.9h2.9a2.9,2.9,0,0,0,2.9-2.9V47.9A2.9,2.9,0,0,0,26.8,45Zm-2.9,5.8V47.9h2.9l0,2.9Z" transform="translate(8.996 19.934)" fill="#fff"/>
      <path id="Path_702" data-name="Path 702" d="M26.8,53H23.9A2.9,2.9,0,0,0,21,55.9v2.9a2.9,2.9,0,0,0,2.9,2.9h2.9a2.9,2.9,0,0,0,2.9-2.9V55.9A2.9,2.9,0,0,0,26.8,53Zm-2.9,5.8V55.9h2.9l0,2.9Z" transform="translate(8.996 23.533)" fill="#fff"/>
      <path id="Path_703" data-name="Path 703" d="M34,23H7.9A2.9,2.9,0,0,0,5,25.9V37.5a2.9,2.9,0,0,0,2.9,2.9H34a2.9,2.9,0,0,0,2.9-2.9V25.9A2.9,2.9,0,0,0,34,23ZM7.9,37.5V25.9H34l0,11.6Z" transform="translate(1.799 10.038)" fill="#fff"/>
      <path id="Path_704" data-name="Path 704" d="M11,7H25.5V9.9H11Z" transform="translate(4.498 2.841)" fill="#fff"/>
      <path id="Path_705" data-name="Path 705" d="M17,11h5.8v2.9H17Z" transform="translate(7.197 4.64)" fill="#fff"/>
      <path id="Path_706" data-name="Path 706" d="M11,11h5.8v2.9H11Z" transform="translate(4.498 4.64)" fill="#fff"/>
      <path id="Path_707" data-name="Path 707" d="M11,15H25.5v2.9H11Z" transform="translate(4.498 6.44)" fill="#fff"/>
      <path id="Path_708" data-name="Path 708" d="M38.8,41A5.805,5.805,0,0,0,33,46.8a5.732,5.732,0,0,0,.8,2.9,5.727,5.727,0,0,0-.8,2.9,5.8,5.8,0,0,0,11.6,0,5.727,5.727,0,0,0-.8-2.9,5.732,5.732,0,0,0,.8-2.9A5.805,5.805,0,0,0,38.8,41Zm0,2.9a2.9,2.9,0,1,1-2.9,2.9A2.9,2.9,0,0,1,38.8,43.9Zm0,11.6a2.9,2.9,0,0,1-2.9-2.9,2.744,2.744,0,0,1,.115-.744,5.586,5.586,0,0,0,5.57,0,2.744,2.744,0,0,1,.115.744A2.9,2.9,0,0,1,38.8,55.5Z" transform="translate(14.394 18.135)" fill="#fff"/>
      <path id="Path_709" data-name="Path 709" d="M41.7,27H35.9A2.9,2.9,0,0,0,33,29.9v8.7a2.9,2.9,0,0,0,2.9,2.9h5.8a2.9,2.9,0,0,0,2.9-2.9V29.9A2.9,2.9,0,0,0,41.7,27Zm0,11.6-5.8,0V29.9h5.8Z" transform="translate(14.394 11.838)" fill="#fff"/>
      <path id="Path_710" data-name="Path 710" d="M86.54,9.841h-29a4.355,4.355,0,0,0-4.349,4.349V33.038h-8.7V22.89a7.257,7.257,0,0,0-7.249-7.249H35.8V1.142H32.361L29.508,3.584l-3.39-2.9-3.38,2.9L19.356.684l-3.381,2.9-2.84-2.442H9.7v14.5H8.249A7.257,7.257,0,0,0,1,22.89V83.782a7.257,7.257,0,0,0,7.249,7.249h29a7.257,7.257,0,0,0,7.249-7.249v-1.45H57.543a7.257,7.257,0,0,0,7.249-7.249V41.737H86.54a4.355,4.355,0,0,0,4.349-4.349v-23.2A4.355,4.355,0,0,0,86.54,9.841Zm-49.294,8.7A4.355,4.355,0,0,1,41.6,22.89v4.349H35.8v-8.7ZM15.975,7.4l3.381-2.9,3.382,2.9,3.382-2.9,3.387,2.9L32.9,4.5V27.239H12.6V4.5ZM8.249,18.54H9.7v8.7H3.9V22.89A4.355,4.355,0,0,1,8.249,18.54Zm29,69.592h-29A4.355,4.355,0,0,1,3.9,83.782V30.139H41.6V83.782A4.355,4.355,0,0,1,37.246,88.132ZM61.893,75.083a4.355,4.355,0,0,1-4.349,4.349H44.495V35.938H57.543a4.355,4.355,0,0,1,4.349,4.349Zm5.8-52.194a4.349,4.349,0,1,1,4.349,4.349A4.355,4.355,0,0,1,67.692,22.89ZM63.051,35.631a10.122,10.122,0,0,1,19.023,3.207H64.646A7.19,7.19,0,0,0,63.051,35.631Zm24.938,1.757a1.451,1.451,0,0,1-1.45,1.45H85A13.075,13.075,0,0,0,76.937,28.2a7.249,7.249,0,1,0-9.776.014A12.95,12.95,0,0,0,60.73,33.81a7.148,7.148,0,0,0-3.187-.771h-1.45V14.191a1.451,1.451,0,0,1,1.45-1.45h29a1.451,1.451,0,0,1,1.45,1.45Z" fill="#fff"/>
      <path id="Path_711" data-name="Path 711" d="M41,15h2.9v2.9H41Z" transform="translate(17.993 6.44)" fill="#fff"/>
      <path id="Path_712" data-name="Path 712" d="M41,11h2.9v2.9H41Z" transform="translate(17.993 4.64)" fill="#fff"/>
      <path id="Path_713" data-name="Path 713" d="M41,19h2.9v2.9H41Z" transform="translate(17.993 8.239)" fill="#fff"/>
      <path id="Path_714" data-name="Path 714" d="M45.233,48.823h5.461v29h2.9v-31.9H50.357l6.137-10.231,6.137,10.231H59.393v17.4h2.9v-14.5h5.461L56.494,30.056Z" transform="translate(19.897 13.212)" fill="#fff"/>
      <path id="Path_715" data-name="Path 715" d="M55,55h2.9v2.9H55Z" transform="translate(24.291 24.433)" fill="#fff"/>
      <path id="Path_716" data-name="Path 716" d="M55,59h2.9v2.9H55Z" transform="translate(24.291 26.232)" fill="#fff"/>
      <path id="Path_717" data-name="Path 717" d="M13,27h2.9v2.9H13Z" transform="translate(5.398 11.838)" fill="#fff"/>
      <path id="Path_718" data-name="Path 718" d="M17,27h2.9v2.9H17Z" transform="translate(7.197 11.838)" fill="#fff"/>
      <path id="Path_719" data-name="Path 719" d="M9,27h2.9v2.9H9Z" transform="translate(3.599 11.838)" fill="#fff"/>
    </g>
  </g>
</svg>
