<svg xmlns="http://www.w3.org/2000/svg" width="139" height="139" viewBox="0 0 139 139">
  <g id="Group_470" data-name="Group 470" transform="translate(-8910 -9915)">
    <rect id="Rectangle_285" data-name="Rectangle 285" width="139" height="139" rx="10" transform="translate(8910 9915)" fill="#ff6d77"/>
    <g id="supplychain" transform="translate(8936 9941)">
      <path id="Path_720" data-name="Path 720" d="M84.226,3.774H81.452a2.777,2.777,0,0,0-2.774,2.774V28.742H75.9V1H45.387V12.1H42.613V1H12.1V28.742H9.323V6.548A2.777,2.777,0,0,0,6.548,3.774H3.774A2.777,2.777,0,0,0,1,6.548V87H87V6.548A2.777,2.777,0,0,0,84.226,3.774Zm-27.742,0h2.774V6.548H56.484Zm5.548,0h2.774V6.548H62.032Zm-13.871,0H53.71V9.323H67.581V3.774h5.548V28.742H56.484V12.1H48.161Zm0,11.1H53.71V28.742H34.29V14.871h5.548v5.548h8.323Zm-2.774,0v2.774H42.613V14.871ZM23.194,3.774h2.774V6.548H23.194Zm5.548,0h2.774V6.548H28.742Zm-13.871,0h5.548V9.323H34.29V3.774h5.548V12.1H31.516V28.742H14.871ZM78.677,31.516V34.29H9.323V31.516ZM28.742,81.452v2.774H12.1V81.452H9.323v2.774H3.92l.111-1.1a11.061,11.061,0,0,1,11.041-9.993H25.767a11.061,11.061,0,0,1,11.041,9.993l.111,1.1h-5.4V81.452ZM9.323,37.065h1.61a12.194,12.194,0,0,0-1.61,1.612Zm.208,16.923,1.456,1.942,2.219-1.665-2.248-3a8.221,8.221,0,0,1-1.635-4.908,9.294,9.294,0,0,1,9.3-9.295h12.9v2.774a5.64,5.64,0,0,1-5.84,5.548H21.955a1.493,1.493,0,0,1-1.461-.918,1.412,1.412,0,0,1,.2-1.291,1.374,1.374,0,0,1,1.117-.565h1.387V39.839H21.806a4.17,4.17,0,0,0-3.966,5.444,3.835,3.835,0,0,0,.773,1.366l-.778,4.461A4.17,4.17,0,0,0,14.871,55.1a4.706,4.706,0,0,0,1.387,3.348l1.387,1.387v.485a3.612,3.612,0,0,1-1.451,2.906l-3.15-1.574a6.705,6.705,0,0,1-3.514-7.662ZM25.968,70.365V67.581a8.28,8.28,0,0,0,5.548-2.136V71.6A13.869,13.869,0,0,0,25.968,70.365Zm5.548-11.106a5.554,5.554,0,0,1-5.548,5.548H23.194v5.548H17.645V65.594a6.367,6.367,0,0,0,2.774-5.278V58.682l-2.2-2.2a1.946,1.946,0,0,1-.576-1.387,1.388,1.388,0,0,1,1.387-1.387H20.2l.981-5.621a4.462,4.462,0,0,0,.774.072h3.722a8.893,8.893,0,0,0,4.613-1.266,40.006,40.006,0,0,1,3.756,8.854l-2.529,1.265ZM39.57,82.846a13.888,13.888,0,0,0-.214-1.394h6.031V78.677H38.477a13.786,13.786,0,0,0-4.186-5.4V64.806H48.161V84.226H39.707ZM50.935,64.806H53.71V84.226H50.935Zm-8.323-2.774V45.387h8.323v5.548H64.806V45.387h8.323V64.806H56.484V62.032ZM62.032,45.387v2.774H59.258V45.387Zm-5.548,2.774H53.71V45.387h2.774Zm8.323,19.419h5.548v5.548H64.806ZM39.839,42.613V62.032H33.8a8.254,8.254,0,0,0,.485-2.774v-.53l3-1.5-.269-1.079A42.551,42.551,0,0,0,32.43,45.056a8.163,8.163,0,0,0,1.86-5.217V37.065H78.677V64.806H75.9V42.613ZM6.548,6.548V46.359a10.984,10.984,0,0,0,1.124,4.776l-.119.239A9.508,9.508,0,0,0,11.8,64.131l3.067,1.533v4.7a13.81,13.81,0,0,0-11.1,5.813V6.548ZM56.484,84.226V67.581h5.548V75.9h11.1V67.581h5.548V84.226Zm27.742,0H81.452V6.548h2.774Z" fill="#fff"/>
      <path id="Path_721" data-name="Path 721" d="M27,49h8.323v2.774H27Z" transform="translate(10.065 18.581)" fill="#fff"/>
      <path id="Path_722" data-name="Path 722" d="M27,53h8.323v2.774H27Z" transform="translate(10.065 20.129)" fill="#fff"/>
    </g>
  </g>
</svg>
